<svg width="144" height="40" viewBox="0 0 144 40" fill="none" xmlns="http://www.w3.org/2000/svg">
<path d="M50.479 19.8605C50.095 19.8605 49.746 19.7668 49.4322 19.5794C49.1184 19.3921 48.8678 19.1415 48.6804 18.8277C48.4931 18.5139 48.3994 18.165 48.3994 17.7809V11.8231C48.3994 11.439 48.4931 11.0901 48.6804 10.7763C48.8678 10.4625 49.1184 10.2118 49.4322 10.0245C49.746 9.83713 50.095 9.74347 50.479 9.74347H58.4884V11.9355H51.0411C50.8913 11.9355 50.7765 11.973 50.6969 12.0479C50.6172 12.1229 50.5774 12.24 50.5774 12.3992V17.2048C50.5774 17.3547 50.6172 17.4694 50.6969 17.5491C50.7765 17.6287 50.8913 17.6685 51.0411 17.6685H58.4884V19.8605H50.479Z" fill="#004366"/>
<path d="M62.5635 19.8605C62.1841 19.8605 61.8364 19.7668 61.5202 19.5794C61.204 19.3921 60.9523 19.1404 60.7649 18.8242C60.5776 18.5081 60.4839 18.1603 60.4839 17.7809V11.8231C60.4839 11.4437 60.5776 11.0959 60.7649 10.7798C60.9523 10.4636 61.204 10.2118 61.5202 10.0245C61.8364 9.83713 62.1841 9.74347 62.5635 9.74347H68.5213C68.8972 9.74347 69.2415 9.83713 69.5553 10.0245C69.8679 10.2118 70.1208 10.4636 70.3129 10.7798C70.5049 11.0959 70.601 11.4437 70.601 11.8231V17.7809C70.601 18.1603 70.5049 18.5081 70.3129 18.8242C70.1208 19.1404 69.8679 19.3921 69.5553 19.5794C69.2415 19.7668 68.8972 19.8605 68.5213 19.8605H62.5635ZM62.6618 17.6685H68.3948V11.9355H62.6618V17.6685Z" fill="#004366"/>
<path d="M73 20.1171V10H75.2482L80.911 16.7447V10H83.1171V20.1171H80.8689L75.178 13.3443V20.1171H73Z" fill="#004366"/>
<path d="M87.041 19.8605C86.657 19.8605 86.308 19.7668 85.9942 19.5794C85.6804 19.3921 85.4298 19.1415 85.2424 18.8277C85.0551 18.5139 84.9614 18.165 84.9614 17.7809V11.8231C84.9614 11.439 85.0551 11.0901 85.2424 10.7763C85.4298 10.4625 85.6804 10.2118 85.9942 10.0245C86.308 9.83713 86.657 9.74347 87.041 9.74347H95.0504V11.9355H87.6032C87.4533 11.9355 87.3385 11.973 87.2589 12.0479C87.1793 12.1229 87.1395 12.24 87.1395 12.3992V17.2048C87.1395 17.3547 87.1793 17.4694 87.2589 17.5491C87.3385 17.6287 87.4533 17.6685 87.6032 17.6685H95.0504V19.8605H87.041Z" fill="#004366"/>
<path d="M99.1253 19.8605C98.7459 19.8605 98.3981 19.7668 98.082 19.5794C97.7658 19.3921 97.514 19.1404 97.3267 18.8242C97.1393 18.5081 97.0457 18.1603 97.0457 17.7809V11.8231C97.0457 11.4437 97.1393 11.0959 97.3267 10.7798C97.514 10.4636 97.7658 10.2118 98.082 10.0245C98.3981 9.83713 98.7459 9.74347 99.1253 9.74347H105.083C105.459 9.74347 105.803 9.83713 106.117 10.0245C106.43 10.2118 106.683 10.4636 106.875 10.7798C107.067 11.0959 107.163 11.4437 107.163 11.8231V17.7809C107.163 18.1603 107.067 18.5081 106.875 18.8242C106.683 19.1404 106.43 19.3921 106.117 19.5794C105.803 19.7668 105.459 19.8605 105.083 19.8605H99.1253ZM99.2236 17.6685H104.957V11.9355H99.2236V17.6685Z" fill="#004366"/>
<path d="M117.126 19.8607L114.189 16.3619H117.041L119.374 19.1159V19.8607H117.126ZM109.271 19.8607V9.75766H117.294C117.674 9.75766 118.021 9.8514 118.337 10.0387C118.654 10.2261 118.908 10.479 119.1 10.7975C119.292 11.116 119.388 11.4626 119.388 11.8373V14.4509C119.388 14.8256 119.292 15.1722 119.1 15.4907C118.908 15.8092 118.654 16.0621 118.337 16.2494C118.021 16.4368 117.674 16.5305 117.294 16.5305L111.449 16.5445V19.8607H109.271ZM111.449 14.3385H117.182V11.9357H111.449V14.3385Z" fill="#004366"/>
<path d="M121.453 19.8605V9.74347H129.477C129.856 9.74347 130.204 9.83713 130.52 10.0245C130.836 10.2118 131.09 10.4636 131.282 10.7798C131.474 11.0959 131.57 11.4437 131.57 11.8231V17.7809C131.57 18.1603 131.474 18.5081 131.282 18.8242C131.09 19.1404 130.836 19.3921 130.52 19.5794C130.204 19.7668 129.856 19.8605 129.477 19.8605H121.453ZM123.617 17.6685H129.364V11.9355H123.617V17.6685Z" fill="#004366"/>
<path d="M133.734 19.8605V9.74347H143.079V11.9355H135.94V13.7059H141.688V15.898H135.94V17.6685H143.079V19.8605H133.734Z" fill="#004366"/>
<path d="M49.0964 29.521V23.603H49.7627V26.2248H54.4875V23.603H55.162V29.521H54.4875V26.8992H49.7627V29.521H49.0964Z" fill="#004366"/>
<path d="M66.9475 29.521V23.603H72.3467V24.2692H67.6137V26.2248H71.4182V26.8992H67.6137V28.8547H72.3467V29.521H66.9475Z" fill="#004366"/>
<path d="M84.0916 29.521V24.5901C84.0916 24.4086 84.136 24.2435 84.2238 24.0924C84.3117 23.9414 84.43 23.8231 84.581 23.7353C84.7321 23.6475 84.8972 23.603 85.0787 23.603H89.0236C89.2039 23.603 89.3702 23.6475 89.5201 23.7353C89.6711 23.8231 89.7906 23.9414 89.8784 24.0924C89.9663 24.2435 90.0096 24.4086 90.0096 24.5901V29.521H89.3433V27.3594H84.7578V29.521H84.0916ZM84.7578 26.6943H89.3433V24.5901C89.3433 24.5023 89.3129 24.4261 89.2497 24.3641C89.1864 24.3008 89.1114 24.2692 89.0236 24.2692H85.0787C84.9909 24.2692 84.9148 24.3008 84.8527 24.3641C84.7895 24.4261 84.7578 24.5023 84.7578 24.5901V26.6943Z" fill="#004366"/>
<path d="M101.803 29.5209V23.5947H102.47V28.8546H107.721V29.5209H101.803Z" fill="#004366"/>
<path d="M121.381 29.521V24.2692H118.751V23.603H124.668V24.2692H122.046V29.521H121.381Z" fill="#004366"/>
<path d="M136.142 29.521V23.603H136.807V26.2248H141.533V23.603H142.207V29.521H141.533V26.8992H136.807V29.521H136.142Z" fill="#004366"/>
<path fill-rule="evenodd" clip-rule="evenodd" d="M17.5782 13.1953C19.3733 14.9904 22.2442 13.3732 24.0392 11.5781C24.4983 11.119 24.8177 10.7996 24.8177 10.7996C25.4142 10.2031 26.2231 9.86807 27.0664 9.86807C27.9101 9.86807 28.719 10.2031 29.315 10.7996L29.3155 10.8001C29.912 11.3961 30.247 12.2054 30.247 13.0487C30.247 13.892 29.912 14.7009 29.3155 15.2974C29.3155 15.2974 28.9961 15.6168 28.537 16.0759C26.7424 17.871 24.8949 20.5121 26.6895 22.3067C27.1486 22.7658 27.468 23.0852 27.468 23.0852C28.0645 23.6817 28.3996 24.4905 28.3996 25.3343C28.3996 26.1776 28.0645 26.9864 27.468 27.5829C26.8715 28.1795 26.0627 28.5145 25.2194 28.5145C24.3756 28.5145 23.5668 28.1795 22.9703 27.5829C22.9703 27.5829 22.6509 27.2636 22.1918 26.8044C20.3972 25.0098 17.756 26.8573 15.961 28.6519C15.5019 29.111 15.1825 29.4304 15.1825 29.4304C14.586 30.0269 13.7771 30.3619 12.9338 30.3619C12.0905 30.3619 11.2812 30.0269 10.6852 29.4304L10.6847 29.4299C10.0882 28.8339 9.75317 28.0251 9.75317 27.1813C9.75317 26.338 10.0882 25.5292 10.6847 24.9326C10.6847 24.9326 11.0041 24.6132 11.4632 24.1541C13.2583 22.3591 14.8755 19.4882 13.0804 17.6931C12.6213 17.234 12.3019 16.9146 12.3019 16.9146C11.7054 16.3181 11.3704 15.5092 11.3704 14.6659C11.3704 13.8226 11.7054 13.0138 12.3019 12.4173L12.3024 12.4168C12.8989 11.8203 13.7077 11.4853 14.551 11.4853C15.3943 11.4853 16.2032 11.8203 16.7997 12.4168C16.7997 12.4168 17.1191 12.7362 17.5782 13.1953Z" fill="#004366"/>
<path d="M20.0006 11.153C21.875 11.153 23.3945 9.63352 23.3945 7.75912C23.3945 5.88473 21.875 4.36523 20.0006 4.36523C18.1262 4.36523 16.6067 5.88473 16.6067 7.75912C16.6067 9.63352 18.1262 11.153 20.0006 11.153Z" fill="#004366"/>
<path d="M14.255 3.67653C15.2702 3.67653 16.0933 2.85351 16.0933 1.83826C16.0933 0.823018 15.2702 0 14.255 0C13.2398 0 12.4167 0.823018 12.4167 1.83826C12.4167 2.85351 13.2398 3.67653 14.255 3.67653Z" fill="#00D7CD"/>
<path d="M7.64451 10.8C9.32346 10.8 10.6845 9.43893 10.6845 7.75997C10.6845 6.08101 9.32346 4.71994 7.64451 4.71994C5.96555 4.71994 4.60449 6.08101 4.60449 7.75997C4.60449 9.43893 5.96555 10.8 7.64451 10.8Z" fill="#00D7CD"/>
<path d="M7.64451 35.5109C9.32346 35.5109 10.6845 34.1499 10.6845 32.4709C10.6845 30.7919 9.32346 29.4309 7.64451 29.4309C5.96555 29.4309 4.60449 30.7919 4.60449 32.4709C4.60449 34.1499 5.96555 35.5109 7.64451 35.5109Z" fill="#00D7CD"/>
<path d="M32.3554 10.8C34.0344 10.8 35.3955 9.43893 35.3955 7.75997C35.3955 6.08101 34.0344 4.71994 32.3554 4.71994C30.6765 4.71994 29.3154 6.08101 29.3154 7.75997C29.3154 9.43893 30.6765 10.8 32.3554 10.8Z" fill="#00D7CD"/>
<path d="M32.3554 35.5109C34.0344 35.5109 35.3955 34.1499 35.3955 32.4709C35.3955 30.7919 34.0344 29.4309 32.3554 29.4309C30.6765 29.4309 29.3154 30.7919 29.3154 32.4709C29.3154 34.1499 30.6765 35.5109 32.3554 35.5109Z" fill="#00D7CD"/>
<path d="M11.0385 20.1161C11.0385 18.2417 9.51904 16.7222 7.64464 16.7222C5.77023 16.7222 4.25073 18.2417 4.25073 20.1161C4.25073 21.9905 5.77023 23.5099 7.64464 23.5099C9.51904 23.5099 11.0385 21.9905 11.0385 20.1161Z" fill="#00D7CD"/>
<path d="M20.0006 35.8638C21.875 35.8638 23.3945 34.3443 23.3945 32.4699C23.3945 30.5955 21.875 29.076 20.0006 29.076C18.1262 29.076 16.6067 30.5955 16.6067 32.4699C16.6067 34.3443 18.1262 35.8638 20.0006 35.8638Z" fill="#00D7CD"/>
<path d="M35.7495 20.1161C35.7495 18.2417 34.23 16.7222 32.3556 16.7222C30.4812 16.7222 28.9617 18.2417 28.9617 20.1161C28.9617 21.9905 30.4812 23.5099 32.3556 23.5099C34.23 23.5099 35.7495 21.9905 35.7495 20.1161Z" fill="#00D7CD"/>
<path d="M3.67652 25.7445C3.67652 24.7292 2.8535 23.9062 1.83826 23.9062C0.823016 23.9062 0 24.7292 0 25.7445C0 26.7597 0.823016 27.5827 1.83826 27.5827C2.8535 27.5827 3.67652 26.7597 3.67652 25.7445Z" fill="#00D7CD"/>
<path d="M14.255 40C15.2702 40 16.0933 39.177 16.0933 38.1617C16.0933 37.1465 15.2702 36.3235 14.255 36.3235C13.2398 36.3235 12.4167 37.1465 12.4167 38.1617C12.4167 39.177 13.2398 40 14.255 40Z" fill="#00D7CD"/>
<path d="M40 25.7445C40 24.7292 39.177 23.9062 38.1617 23.9062C37.1465 23.9062 36.3235 24.7292 36.3235 25.7445C36.3235 26.7597 37.1465 27.5827 38.1617 27.5827C39.177 27.5827 40 26.7597 40 25.7445Z" fill="#00D7CD"/>
<path d="M25.7443 3.67653C26.7595 3.67653 27.5825 2.85351 27.5825 1.83826C27.5825 0.823018 26.7595 0 25.7443 0C24.729 0 23.906 0.823018 23.906 1.83826C23.906 2.85351 24.729 3.67653 25.7443 3.67653Z" fill="#00D7CD"/>
<path d="M3.67652 14.2553C3.67652 13.2401 2.8535 12.417 1.83826 12.417C0.823016 12.417 0 13.2401 0 14.2553C0 15.2705 0.823016 16.0936 1.83826 16.0936C2.8535 16.0936 3.67652 15.2705 3.67652 14.2553Z" fill="#00D7CD"/>
<path d="M25.7443 40C26.7595 40 27.5825 39.177 27.5825 38.1617C27.5825 37.1465 26.7595 36.3235 25.7443 36.3235C24.729 36.3235 23.906 37.1465 23.906 38.1617C23.906 39.177 24.729 40 25.7443 40Z" fill="#00D7CD"/>
<path d="M40 14.2553C40 13.2401 39.177 12.417 38.1617 12.417C37.1465 12.417 36.3235 13.2401 36.3235 14.2553C36.3235 15.2705 37.1465 16.0936 38.1617 16.0936C39.177 16.0936 40 15.2705 40 14.2553Z" fill="#00D7CD"/>
</svg>
