<?xml version="1.0" encoding="UTF-8" standalone="no"?>
<!DOCTYPE svg PUBLIC "-//W3C//DTD SVG 1.1//EN" "http://www.w3.org/Graphics/SVG/1.1/DTD/svg11.dtd">
<svg width="100%" height="100%" viewBox="0 0 1692 1692" version="1.1" xmlns="http://www.w3.org/2000/svg" xmlns:xlink="http://www.w3.org/1999/xlink" xml:space="preserve" xmlns:serif="http://www.serif.com/" style="fill-rule:evenodd;clip-rule:evenodd;stroke-linejoin:round;stroke-miterlimit:2;">
    <g transform="matrix(1,0,0,1,-994,-990.157)">
        <g transform="matrix(1.91667,0,0,3.40741,0,0)">
            <g transform="matrix(1.26578,0,0,1.26578,-255.152,-143.223)">
                <g>
                    <g transform="matrix(8.01276,0,0,4.50718,-1302.25,-142.076)">
                        <path d="M277.061,136.274C280.967,140.18 287.214,136.661 291.12,132.755C292.119,131.756 292.814,131.061 292.814,131.061C294.112,129.763 295.872,129.034 297.707,129.034C299.543,129.034 301.303,129.763 302.6,131.061C302.601,131.061 302.601,131.061 302.601,131.062C303.899,132.359 304.628,134.12 304.628,135.955C304.628,137.79 303.899,139.55 302.601,140.848C302.601,140.848 301.906,141.543 300.907,142.542C297.002,146.448 292.982,152.195 296.887,156.1C297.886,157.099 298.581,157.794 298.581,157.794C299.879,159.092 300.608,160.852 300.608,162.688C300.608,164.523 299.879,166.283 298.581,167.581C298.581,167.581 298.581,167.581 298.581,167.581C297.283,168.879 295.523,169.608 293.688,169.608C291.852,169.608 290.092,168.879 288.794,167.581C288.794,167.581 288.099,166.886 287.1,165.887C283.195,161.982 277.448,166.002 273.542,169.907C272.543,170.906 271.848,171.601 271.848,171.601C270.55,172.899 268.79,173.628 266.955,173.628C265.12,173.628 263.359,172.899 262.062,171.601C262.061,171.601 262.061,171.601 262.061,171.6C260.763,170.303 260.034,168.543 260.034,166.707C260.034,164.872 260.763,163.112 262.061,161.814C262.061,161.814 262.756,161.119 263.755,160.12C267.661,156.214 271.18,149.967 267.274,146.061C266.275,145.062 265.58,144.367 265.58,144.367C264.282,143.069 263.553,141.309 263.553,139.474C263.553,137.639 264.282,135.879 265.58,134.581C265.58,134.581 265.581,134.58 265.581,134.58C266.879,133.282 268.639,132.553 270.474,132.553C272.309,132.553 274.069,133.282 275.367,134.58C275.367,134.58 276.062,135.275 277.061,136.274Z" style="fill:rgb(0,67,102);"/>
                    </g>
                    <g transform="matrix(23.6698,0,0,13.3142,-5774.05,-905.943)">
                        <circle cx="284.5" cy="99.5" r="2.5" style="fill:rgb(0,67,102);"/>
                    </g>
                </g>
                <g transform="matrix(12.8204,0,0,7.21149,-2787.57,-356.792)">
                    <circle cx="284.5" cy="99.5" r="2.5" style="fill:rgb(0,215,205);"/>
                </g>
                <g transform="matrix(21.2017,0,0,11.926,-5287.31,-767.809)">
                    <circle cx="284.5" cy="99.5" r="2.5" style="fill:rgb(0,215,205);"/>
                </g>
                <g transform="matrix(21.2017,0,0,11.926,-5287.31,-525.457)">
                    <circle cx="284.5" cy="99.5" r="2.5" style="fill:rgb(0,215,205);"/>
                </g>
                <g transform="matrix(21.2017,0,0,11.926,-4856.46,-767.809)">
                    <circle cx="284.5" cy="99.5" r="2.5" style="fill:rgb(0,215,205);"/>
                </g>
                <g transform="matrix(21.2017,0,0,11.926,-4856.46,-525.457)">
                    <circle cx="284.5" cy="99.5" r="2.5" style="fill:rgb(0,215,205);"/>
                </g>
                <g transform="matrix(1.44936e-15,-13.3142,23.6698,8.15263e-16,-1610.57,4327.9)">
                    <circle cx="284.5" cy="99.5" r="2.5" style="fill:rgb(0,215,205);"/>
                </g>
                <g transform="matrix(23.6698,0,0,13.3142,-5774.05,-663.592)">
                    <circle cx="284.5" cy="99.5" r="2.5" style="fill:rgb(0,215,205);"/>
                </g>
                <g transform="matrix(1.44936e-15,-13.3142,23.6698,8.15263e-16,-1179.72,4327.9)">
                    <circle cx="284.5" cy="99.5" r="2.5" style="fill:rgb(0,215,205);"/>
                </g>
                <g transform="matrix(7.85024e-16,-7.21149,12.8204,4.41576e-16,-632.291,2646.88)">
                    <circle cx="284.5" cy="99.5" r="2.5" style="fill:rgb(0,215,205);"/>
                </g>
                <g transform="matrix(12.8204,0,0,7.21149,-2787.57,-0.550311)">
                    <circle cx="284.5" cy="99.5" r="2.5" style="fill:rgb(0,215,205);"/>
                </g>
                <g transform="matrix(7.85024e-16,-7.21149,12.8204,4.41576e-16,1.02682,2646.88)">
                    <circle cx="284.5" cy="99.5" r="2.5" style="fill:rgb(0,215,205);"/>
                </g>
                <g transform="matrix(12.8204,0,0,7.21149,-2587.25,-356.792)">
                    <circle cx="284.5" cy="99.5" r="2.5" style="fill:rgb(0,215,205);"/>
                </g>
                <g transform="matrix(7.85024e-16,-7.21149,12.8204,4.41576e-16,-632.291,2534.2)">
                    <circle cx="284.5" cy="99.5" r="2.5" style="fill:rgb(0,215,205);"/>
                </g>
                <g transform="matrix(12.8204,0,0,7.21149,-2587.25,-0.550311)">
                    <circle cx="284.5" cy="99.5" r="2.5" style="fill:rgb(0,215,205);"/>
                </g>
                <g transform="matrix(7.85024e-16,-7.21149,12.8204,4.41576e-16,1.02682,2534.2)">
                    <circle cx="284.5" cy="99.5" r="2.5" style="fill:rgb(0,215,205);"/>
                </g>
            </g>
        </g>
    </g>
</svg>
