<svg width="92" height="92" viewBox="0 0 92 92" fill="none" xmlns="http://www.w3.org/2000/svg">
<path fill-rule="evenodd" clip-rule="evenodd" d="M40.4298 30.3497C44.5585 34.4784 51.1616 30.7588 55.2903 26.6301C56.3463 25.5742 57.0809 24.8395 57.0809 24.8395C58.4529 23.4675 60.3132 22.697 62.2528 22.697C64.1935 22.697 66.0538 23.4675 67.4248 24.8395L67.4258 24.8406C68.7978 26.2115 69.5684 28.0729 69.5684 30.0125C69.5684 31.9521 68.7978 33.8125 67.4258 35.1845C67.4258 35.1845 66.6912 35.9191 65.6353 36.9751C61.5076 41.1037 57.2585 47.1784 61.3861 51.306C62.442 52.362 63.1766 53.0966 63.1766 53.0966C64.5486 54.4686 65.3192 56.3289 65.3192 58.2696C65.3192 60.2092 64.5486 62.0695 63.1766 63.4415C61.8046 64.8135 59.9443 65.5841 58.0047 65.5841C56.064 65.5841 54.2037 64.8135 52.8317 63.4415C52.8317 63.4415 52.0971 62.7069 51.0411 61.651C46.9135 57.5233 40.8389 61.7725 36.7102 65.9001C35.6542 66.9561 34.9196 67.6907 34.9196 67.6907C33.5476 69.0627 31.6873 69.8333 29.7477 69.8333C27.8081 69.8333 25.9467 69.0627 24.5758 67.6907L24.5747 67.6897C23.2027 66.3187 22.4321 64.4584 22.4321 62.5177C22.4321 60.5781 23.2027 58.7178 24.5747 57.3458C24.5747 57.3458 25.3093 56.6111 26.3653 55.5552C30.4939 51.4265 34.2135 44.8234 30.0849 40.6947C29.0289 39.6387 28.2943 38.9041 28.2943 38.9041C26.9223 37.5321 26.1518 35.6718 26.1518 33.7322C26.1518 31.7925 26.9223 29.9322 28.2943 28.5602L28.2954 28.5591C29.6674 27.1871 31.5277 26.4166 33.4673 26.4166C35.4069 26.4166 37.2673 27.1871 38.6393 28.5591C38.6393 28.5591 39.3739 29.2938 40.4298 30.3497Z" fill="#004366"/>
<path d="M46.0021 25.6522C50.3133 25.6522 53.8081 22.1573 53.8081 17.8461C53.8081 13.535 50.3133 10.0401 46.0021 10.0401C41.6909 10.0401 38.196 13.535 38.196 17.8461C38.196 22.1573 41.6909 25.6522 46.0021 25.6522Z" fill="#004366"/>
<path d="M32.7866 8.45609C35.1217 8.45609 37.0147 6.56313 37.0147 4.22804C37.0147 1.89296 35.1217 0 32.7866 0C30.4515 0 28.5586 1.89296 28.5586 4.22804C28.5586 6.56313 30.4515 8.45609 32.7866 8.45609Z" fill="#00D7CD"/>
<path d="M17.5824 24.8402C21.4441 24.8402 24.5745 21.7097 24.5745 17.8481C24.5745 13.9864 21.4441 10.856 17.5824 10.856C13.7208 10.856 10.5903 13.9864 10.5903 17.8481C10.5903 21.7097 13.7208 24.8402 17.5824 24.8402Z" fill="#00D7CD"/>
<path d="M17.5824 81.6757C21.4441 81.6757 24.5745 78.5452 24.5745 74.6836C24.5745 70.8219 21.4441 67.6914 17.5824 67.6914C13.7208 67.6914 10.5903 70.8219 10.5903 74.6836C10.5903 78.5452 13.7208 81.6757 17.5824 81.6757Z" fill="#00D7CD"/>
<path d="M74.4181 24.8402C78.2797 24.8402 81.4102 21.7097 81.4102 17.8481C81.4102 13.9864 78.2797 10.856 74.4181 10.856C70.5565 10.856 67.426 13.9864 67.426 17.8481C67.426 21.7097 70.5565 24.8402 74.4181 24.8402Z" fill="#00D7CD"/>
<path d="M74.4181 81.6757C78.2797 81.6757 81.4102 78.5452 81.4102 74.6836C81.4102 70.8219 78.2797 67.6914 74.4181 67.6914C70.5565 67.6914 67.426 70.8219 67.426 74.6836C67.426 78.5452 70.5565 81.6757 74.4181 81.6757Z" fill="#00D7CD"/>
<path d="M25.3882 46.2672C25.3882 41.956 21.8933 38.4612 17.5822 38.4612C13.271 38.4612 9.77612 41.956 9.77612 46.2672C9.77612 50.5783 13.271 54.0732 17.5822 54.0732C21.8933 54.0732 25.3882 50.5783 25.3882 46.2672Z" fill="#00D7CD"/>
<path d="M46.0021 82.4876C50.3133 82.4876 53.8081 78.9928 53.8081 74.6816C53.8081 70.3705 50.3133 66.8756 46.0021 66.8756C41.6909 66.8756 38.196 70.3705 38.196 74.6816C38.196 78.9928 41.6909 82.4876 46.0021 82.4876Z" fill="#00D7CD"/>
<path d="M82.2246 46.2672C82.2246 41.956 78.7298 38.4612 74.4186 38.4612C70.1074 38.4612 66.6125 41.956 66.6125 46.2672C66.6125 50.5783 70.1074 54.0732 74.4186 54.0732C78.7298 54.0732 82.2246 50.5783 82.2246 46.2672Z" fill="#00D7CD"/>
<path d="M8.45606 59.2127C8.45606 56.8776 6.56311 54.9846 4.22803 54.9846C1.89295 54.9846 0 56.8776 0 59.2127C0 61.5477 1.89295 63.4407 4.22803 63.4407C6.56311 63.4407 8.45606 61.5477 8.45606 59.2127Z" fill="#00D7CD"/>
<path d="M32.7866 92.0007C35.1217 92.0007 37.0147 90.1077 37.0147 87.7726C37.0147 85.4375 35.1217 83.5446 32.7866 83.5446C30.4515 83.5446 28.5586 85.4375 28.5586 87.7726C28.5586 90.1077 30.4515 92.0007 32.7866 92.0007Z" fill="#00D7CD"/>
<path d="M92.0002 59.2127C92.0002 56.8776 90.1073 54.9846 87.7722 54.9846C85.4371 54.9846 83.5442 56.8776 83.5442 59.2127C83.5442 61.5477 85.4371 63.4407 87.7722 63.4407C90.1073 63.4407 92.0002 61.5477 92.0002 59.2127Z" fill="#00D7CD"/>
<path d="M59.2122 8.45609C61.5472 8.45609 63.4402 6.56313 63.4402 4.22804C63.4402 1.89296 61.5472 0 59.2122 0C56.8771 0 54.9841 1.89296 54.9841 4.22804C54.9841 6.56313 56.8771 8.45609 59.2122 8.45609Z" fill="#00D7CD"/>
<path d="M8.45606 32.7875C8.45606 30.4524 6.56311 28.5594 4.22803 28.5594C1.89295 28.5594 0 30.4524 0 32.7875C0 35.1226 1.89295 37.0155 4.22803 37.0155C6.56311 37.0155 8.45606 35.1226 8.45606 32.7875Z" fill="#00D7CD"/>
<path d="M59.2122 92.0007C61.5472 92.0007 63.4402 90.1077 63.4402 87.7726C63.4402 85.4375 61.5472 83.5446 59.2122 83.5446C56.8771 83.5446 54.9841 85.4375 54.9841 87.7726C54.9841 90.1077 56.8771 92.0007 59.2122 92.0007Z" fill="#00D7CD"/>
<path d="M92.0002 32.7875C92.0002 30.4524 90.1073 28.5594 87.7722 28.5594C85.4371 28.5594 83.5442 30.4524 83.5442 32.7875C83.5442 35.1226 85.4371 37.0155 87.7722 37.0155C90.1073 37.0155 92.0002 35.1226 92.0002 32.7875Z" fill="#00D7CD"/>
</svg>
