<svg width="97" height="104" viewBox="0 0 97 104" fill="none" xmlns="http://www.w3.org/2000/svg">
<g id="no_content">
<circle id="Ellipse 19" cx="48.5" cy="55.0566" r="48" fill="#E4E6EA"/>
<g id="Group 8962">
<path id="Vector" fill-rule="evenodd" clip-rule="evenodd" d="M16.3304 3.96582H79.7948C84.0986 3.96582 87.6252 7.48652 87.6252 11.7902V88.194C87.6252 92.4975 84.0988 96.0236 79.7948 96.0236H16.3304C12.0209 96.0236 8.5 92.4975 8.5 88.1938V11.79C8.5 7.48633 12.0209 3.96582 16.3304 3.96582Z" fill="#C9CDD5"/>
<path id="Vector_2" fill-rule="evenodd" clip-rule="evenodd" d="M18.5973 13.6572H77.5222C78.1575 13.6572 78.6722 14.1719 78.6722 14.8015V85.4397C78.6722 86.0693 78.1575 86.584 77.5222 86.584H18.5973C17.9676 86.584 17.4528 86.0693 17.4528 85.4397V14.8015C17.4529 14.1719 17.9676 13.6572 18.5973 13.6572Z" fill="white"/>
<path id="Vector_3" d="M31.7775 31.7566H28.514C27.7145 31.7566 27.0665 31.1081 27.0665 30.308C27.0665 29.5079 27.7145 28.8594 28.514 28.8594H31.7775C32.577 28.8594 33.225 29.5079 33.225 30.308C33.225 31.1081 32.577 31.7566 31.7775 31.7566Z" fill="#9AAFB7"/>
<path id="Vector_4" d="M31.7775 42.0725H28.514C27.7145 42.0725 27.0665 41.424 27.0665 40.6239C27.0665 39.8239 27.7145 39.1753 28.514 39.1753H31.7775C32.577 39.1753 33.225 39.8239 33.225 40.6239C33.225 41.424 32.577 42.0725 31.7775 42.0725Z" fill="#939CAA"/>
<path id="Vector_5" d="M31.7775 52.3826H28.514C27.7145 52.3826 27.0665 51.734 27.0665 50.934C27.0665 50.1339 27.7145 49.4854 28.514 49.4854H31.7775C32.577 49.4854 33.225 50.1339 33.225 50.934C33.225 51.734 32.577 52.3826 31.7775 52.3826Z" fill="#939CAA"/>
<path id="Vector_6" d="M31.7775 62.698H28.514C27.7145 62.698 27.0665 62.0495 27.0665 61.2494C27.0665 60.4493 27.7145 59.8008 28.514 59.8008H31.7775C32.577 59.8008 33.225 60.4493 33.225 61.2494C33.225 62.0495 32.577 62.698 31.7775 62.698Z" fill="#939CAA"/>
<path id="Vector_7" d="M31.7775 73.0081H28.514C27.7145 73.0081 27.0665 72.3595 27.0665 71.5595C27.0665 70.7594 27.7145 70.1108 28.514 70.1108H31.7775C32.577 70.1108 33.225 70.7594 33.225 71.5595C33.225 72.3595 32.577 73.0081 31.7775 73.0081Z" fill="#939CAA"/>
<path id="Vector_8" d="M68.0435 31.7566H41.3984C40.5989 31.7566 39.9509 31.1081 39.9509 30.308C39.9509 29.5079 40.5989 28.8594 41.3984 28.8594H68.0435C68.843 28.8594 69.491 29.5079 69.491 30.308C69.491 31.1081 68.843 31.7566 68.0435 31.7566Z" fill="#939CAA"/>
<path id="Vector_9" d="M68.0435 42.0725H41.3984C40.5989 42.0725 39.9509 41.424 39.9509 40.6239C39.9509 39.8239 40.5989 39.1753 41.3984 39.1753H68.0435C68.843 39.1753 69.491 39.8239 69.491 40.6239C69.491 41.424 68.843 42.0725 68.0435 42.0725Z" fill="#939CAA"/>
<path id="Vector_10" d="M68.0435 52.3826H41.3984C40.5989 52.3826 39.9509 51.734 39.9509 50.934C39.9509 50.1339 40.5989 49.4854 41.3984 49.4854H68.0435C68.843 49.4854 69.491 50.1339 69.491 50.934C69.491 51.734 68.843 52.3826 68.0435 52.3826Z" fill="#939CAA"/>
<path id="Vector_11" d="M68.0435 62.698H41.3984C40.5989 62.698 39.9509 62.0495 39.9509 61.2494C39.9509 60.4493 40.5989 59.8008 41.3984 59.8008H68.0435C68.843 59.8008 69.491 60.4493 69.491 61.2494C69.491 62.0495 68.843 62.698 68.0435 62.698Z" fill="#939CAA"/>
<path id="Vector_12" d="M68.0435 73.0081H41.3984C40.5989 73.0081 39.9509 72.3595 39.9509 71.5595C39.9509 70.7594 40.5989 70.1108 41.3984 70.1108H68.0435C68.843 70.1108 69.491 70.7594 69.491 71.5595C69.491 72.3595 68.843 73.0081 68.0435 73.0081Z" fill="#939CAA"/>
<path id="Vector_13" d="M61.396 21.2056H34.7235C31.0872 21.2056 28.1288 18.2469 28.1288 14.6101V3.96572C28.1288 3.16547 28.7768 2.51709 29.5763 2.51709H66.5489C67.3484 2.51709 67.9964 3.16565 67.9964 3.96572V14.6101C67.9962 18.2469 65.0354 21.2056 61.396 21.2056ZM31.0236 5.41453V14.6101C31.0236 16.6492 32.6834 18.3082 34.7235 18.3082H61.396C63.4392 18.3082 65.1014 16.6492 65.1014 14.6101V5.41453H31.0236Z" fill="#AEB5BF"/>
<path id="Vector_14" fill-rule="evenodd" clip-rule="evenodd" d="M38.9072 0.0234375C36.7387 0.0234375 34.9646 1.79738 34.9646 3.96582C34.9646 6.13407 36.7387 7.90258 38.9072 7.90258H57.4866C59.655 7.90258 61.4291 6.13407 61.4291 3.96582C61.429 1.79738 59.6548 0.0234375 57.4864 0.0234375H38.9072Z" fill="#C9CDD5"/>
<path id="Vector_15" fill-rule="evenodd" clip-rule="evenodd" d="M34.9646 3.96582C34.9646 6.13407 36.7387 7.90258 38.9072 7.90258H57.4866C59.655 7.90258 61.4291 6.13407 61.4291 3.96582H34.9646Z" fill="#AEB5BF"/>
</g>
</g>
</svg>
